Normalized EMG Linear Envelopes
nRows=95
nColumns=4

endheader
time	 med_gas_r	  soleus_r	 tib_ant_r	
8.5494	  0.015581	  0.040061	  0.003869	
8.58266	  0.015451	  0.039538	  0.003900	
8.61593	  0.015334	  0.039324	  0.003940	
8.64919	  0.015248	  0.039612	  0.003995	
8.68246	  0.015199	  0.040560	  0.004068	
8.71573	  0.015172	  0.042178	  0.004160	
8.74899	  0.015124	  0.044255	  0.004269	
8.78226	  0.015008	  0.046407	  0.004381	
8.81552	  0.014801	  0.048270	  0.004482	
8.84879	  0.014532	  0.049688	  0.004555	
8.88206	  0.014269	  0.050747	  0.004591	
8.91532	  0.014078	  0.051642	  0.004587	
8.94859	  0.013979	  0.052518	  0.004544	
8.98185	  0.013938	  0.053448	  0.004468	
9.01512	  0.013898	  0.054505	  0.004364	
9.04839	  0.013828	  0.055784	  0.004243	
9.08165	  0.013744	  0.057295	  0.004124	
9.11492	  0.013697	  0.058846	  0.004030	
9.14819	  0.013732	  0.060088	  0.003982	
9.18145	  0.013865	  0.060714	  0.003992	
9.21472	  0.014077	  0.060637	  0.004056	
9.24798	  0.014333	  0.059961	  0.004151	
9.28125	  0.014592	  0.058818	  0.004239	
9.31452	  0.014818	  0.057257	  0.004280	
9.34778	  0.014982	  0.055303	  0.004249	
9.38105	  0.015064	  0.053087	  0.004146	
9.41431	  0.015063	  0.050874	  0.003996	
9.44758	  0.015010	  0.048979	  0.003837	
9.48085	  0.014966	  0.047636	  0.003705	
9.51411	  0.015006	  0.046931	  0.003628	
9.54738	  0.015194	  0.046783	  0.003620	
9.58065	  0.015551	  0.046975	  0.003680	
9.61391	  0.016038	  0.047204	  0.003803	
9.64718	  0.016562	  0.047175	  0.003976	
9.68044	  0.017006	  0.046716	  0.004177	
9.71371	  0.017287	  0.045852	  0.004373	
9.74698	  0.017382	  0.044776	  0.004517	
9.78024	  0.017334	  0.043742	  0.004570	
9.81351	  0.017221	  0.042944	  0.004522	
9.84677	  0.017114	  0.042463	  0.004404	
9.88004	  0.017051	  0.042294	  0.004277	
9.91331	  0.017034	  0.042401	  0.004200	
9.94657	  0.017041	  0.042753	  0.004207	
9.97984	  0.017055	  0.043336	  0.004299	
10.0131	  0.017071	  0.044153	  0.004460	
10.0464	  0.017100	  0.045217	  0.004664	
10.0796	  0.017158	  0.046531	  0.004886	
10.1129	  0.017253	  0.048019	  0.005093	
10.1462	  0.017381	  0.049468	  0.005246	
10.1794	  0.017525	  0.050564	  0.005305	
10.2127	  0.017660	  0.051039	  0.005245	
10.246	  0.017769	  0.050839	  0.005074	
10.2792	  0.017851	  0.050161	  0.004822	
10.3125	  0.017929	  0.049329	  0.004532	
10.3458	  0.018017	  0.048578	  0.004243	
10.379	  0.018101	  0.047932	  0.003983	
10.4123	  0.018139	  0.047239	  0.003768	
10.4456	  0.018081	  0.046334	  0.003610	
10.4788	  0.017910	  0.045205	  0.003514	
10.5121	  0.017650	  0.044050	  0.003477	
10.5454	  0.017349	  0.043195	  0.003491	
10.5786	  0.017052	  0.042928	  0.003539	
10.6119	  0.016777	  0.043342	  0.003610	
10.6452	  0.016524	  0.044278	  0.003691	
10.6784	  0.016290	  0.045379	  0.003778	
10.7117	  0.016081	  0.046236	  0.003870	
10.745	  0.015904	  0.046575	  0.003966	
10.7782	  0.015757	  0.046373	  0.004064	
10.8115	  0.015632	  0.045844	  0.004162	
10.8448	  0.015529	  0.045271	  0.004255	
10.878	  0.015452	  0.044837	  0.004338	
10.9113	  0.015413	  0.044580	  0.004404	
10.9446	  0.015427	  0.044492	  0.004445	
10.9778	  0.015501	  0.044611	  0.004457	
11.0111	  0.015637	  0.044994	  0.004447	
11.0444	  0.015827	  0.045591	  0.004425	
11.0776	  0.016050	  0.046214	  0.004401	
11.1109	  0.016280	  0.046652	  0.004377	
11.1442	  0.016485	  0.046827	  0.004341	
11.1774	  0.016652	  0.046831	  0.004279	
11.2107	  0.016797	  0.046803	  0.004189	
11.244	  0.016954	  0.046780	  0.004085	
11.2772	  0.017138	  0.046664	  0.003988	
11.3105	  0.017322	  0.046336	  0.003916	
11.3437	  0.017451	  0.045790	  0.003876	
11.377	  0.017495	  0.045172	  0.003868	
11.4103	  0.017490	  0.044705	  0.003888	
11.4435	  0.017503	  0.044590	  0.003934	
11.4768	  0.017564	  0.044969	  0.004000	
11.5101	  0.017618	  0.045932	  0.004081	
11.5433	  0.017564	  0.047471	  0.004173	
11.5766	  0.017331	  0.049388	  0.004275	
11.6099	  0.016936	  0.051263	  0.004391	
11.6431	  0.016472	  0.052621	  0.004519	
11.6764	  0.016042	  0.053192	  0.004646	
